<?xml version="1.0" encoding="iso-8859-1"?>
<!-- Generator: Adobe Illustrator 19.0.0, SVG Export Plug-In . SVG Version: 6.00 Build 0)  -->
<svg version="1.1" id="Capa_1" xmlns="http://www.w3.org/2000/svg" xmlns:xlink="http://www.w3.org/1999/xlink" x="0px" y="0px"
	 viewBox="0 0 512 512" style="enable-background:new 0 0 512 512;" xml:space="preserve">
<path style="fill:#B3D8F4;" d="M347.658,211.402V84.522H229.652v126.883c-7.233,2.723-14.224,5.938-20.94,9.593
	c-3.123-39.42-36.078-70.443-76.301-70.443c-42.287,0-76.567,34.28-76.567,76.567s34.28,76.567,76.567,76.567
	c0.555,0,1.102-0.03,1.653-0.042c-8.307,19.867-12.902,41.672-12.902,64.553c0,56.192,27.674,105.917,70.132,136.301h194.729
	c42.458-30.384,70.132-80.109,70.132-136.301C456.155,296.462,411.051,235.268,347.658,211.402z M132.41,270.166
	c-23.773,0-43.044-19.272-43.044-43.045s19.272-43.044,43.044-43.044s43.044,19.272,43.044,43.044
	C175.455,250.894,156.184,270.166,132.41,270.166z"/>
<g>
	<path style="fill:#57A4FF;" d="M449.603,337.686c-24.481-6.413-23.24-16.054-48.547-16.054c-25.308,0-25.308,16.31-50.616,16.31
		c-25.307,0-25.307-16.31-50.614-16.31c-25.311,0-25.311,16.31-50.621,16.31s-28.203-22.457-52.688-16.043
		c-5.396,14.42-8.354,30.021-8.354,46.301c0,39.1,17.43,76.229,47.101,101.301h170.791c29.671-25.073,47.101-62.202,47.101-101.301
		C453.154,357.701,451.924,347.485,449.603,337.686z"/>
	<path style="fill:#57A4FF;" d="M146.229,267.886c4.339,1.471,8.983,2.28,13.819,2.28c23.773,0,43.044-19.272,43.044-43.045
		s-19.272-43.044-43.044-43.044c-4.836,0-9.48,0.809-13.819,2.28c16.991,5.759,29.226,21.828,29.226,40.765
		C175.455,246.058,163.22,262.127,146.229,267.886z"/>
	<path style="fill:#57A4FF;" d="M148.799,368.199c0-22.881,4.595-44.687,12.902-64.553c-0.552,0.012-1.099,0.042-1.653,0.042
		c-42.287,0-76.567-34.28-76.567-76.567c0-37.573,27.071-68.802,62.768-75.303c-4.49-0.82-9.112-1.264-13.839-1.264
		c-42.287,0-76.567,34.28-76.567,76.567s34.28,76.567,76.567,76.567c0.555,0,1.102-0.03,1.653-0.042
		c-8.307,19.867-12.902,41.672-12.902,64.553c0,56.192,27.674,105.917,70.132,136.301h27.638
		C176.473,474.116,148.799,424.391,148.799,368.199z"/>
	<path style="fill:#57A4FF;" d="M236.35,220.998c6.717-3.655,13.708-6.87,20.94-9.593V84.522h-27.638v110.75
		C233.289,203.214,235.626,211.876,236.35,220.998z"/>
</g>
<g>
	<rect x="253.649" y="7.5" style="fill:#FFB655;" width="70.01" height="45.5"/>
	<rect x="253.649" y="84.52" style="fill:#FFB655;" width="70.01" height="45.5"/>
</g>
<g>
	<rect x="253.649" y="7.5" style="fill:#FF7956;" width="22.485" height="45.5"/>
	<rect x="253.649" y="84.52" style="fill:#FF7956;" width="22.485" height="45.5"/>
</g>
<rect x="213.899" y="53" style="fill:#78B9EB;" width="149.51" height="31.522"/>
<rect x="213.899" y="53" style="fill:#006DF0;" width="45.715" height="31.522"/>
<path style="fill:#FF7956;" d="M417.603,337.686c-24.481-6.413-23.24-16.054-48.547-16.054c-25.308,0-25.308,16.31-50.616,16.31
	c-25.307,0-25.307-16.31-50.614-16.31c-25.311,0-25.311,16.31-50.621,16.31s-28.203-22.457-52.688-16.043
	c-5.396,14.42-8.354,30.021-8.354,46.301c0,39.1,17.43,76.229,47.101,101.301h170.791c29.671-25.073,47.101-62.202,47.101-101.301
	C421.154,357.701,419.924,347.485,417.603,337.686z"/>
<path style="fill:#FF3F62;" d="M211.048,368.199c0-10.441,1.223-20.6,3.519-30.35c-22.901-1.493-26.445-22.134-50.05-15.951
	c-5.396,14.42-8.354,30.021-8.354,46.301c0,39.1,17.43,76.229,47.101,101.301h54.885
	C228.477,444.428,211.048,407.299,211.048,368.199z"/>
<g>
	<path style="fill:#FFFFFF;" d="M363.943,250.125c-4.435-2.828-9.084-5.435-13.82-7.747l-6.58,13.48
		c4.228,2.063,8.377,4.39,12.334,6.913L363.943,250.125z"/>
	<path style="fill:#FFFFFF;" d="M390.937,296.329l12.262-8.641c-8.543-12.122-18.828-22.735-30.57-31.546l-9.002,11.998
		C374.11,276.008,383.3,285.492,390.937,296.329z"/>
	<path style="fill:#FFFFFF;" d="M334.914,252.04l5.553-13.934c-0.828-0.33-1.661-0.652-2.497-0.968l-11.669-4.393l-5.285,14.039
		l11.669,4.392C333.431,251.458,334.174,251.745,334.914,252.04z"/>
	<path style="fill:#FFFFFF;" d="M354.623,429.4l10.998,10.199c5.601-6.038,10.485-12.729,14.521-19.885l-13.066-7.367
		C363.616,418.483,359.427,424.221,354.623,429.4z"/>
	<path style="fill:#FFFFFF;" d="M377.594,381.994l14.824,2.295c0.82-5.301,1.236-10.714,1.236-16.09h-15
		C378.654,372.81,378.298,377.45,377.594,381.994z"/>
	<path style="fill:#FFFFFF;" d="M371.187,404.091l13.754,5.988c2.144-4.925,3.922-10.056,5.284-15.25l-14.51-3.805
		C374.549,395.475,373.025,399.871,371.187,404.091z"/>
</g>
<g>
	<rect x="259.619" y="426" style="fill:#1D1D1F;" width="15" height="15"/>
	<rect x="234.619" y="426" style="fill:#1D1D1F;" width="15" height="15"/>
	<rect x="209.619" y="426" style="fill:#1D1D1F;" width="15" height="15"/>
	<rect x="306.119" y="372" style="fill:#1D1D1F;" width="15" height="15"/>
	<rect x="331.119" y="372" style="fill:#1D1D1F;" width="15" height="15"/>
	<rect x="281.119" y="372" style="fill:#1D1D1F;" width="15" height="15"/>
	<rect x="268.639" y="22.75" style="fill:#1D1D1F;" width="15" height="15"/>
	<rect x="293.639" y="22.75" style="fill:#1D1D1F;" width="15" height="15"/>
	<rect x="273.649" y="98" style="fill:#1D1D1F;" width="15" height="15"/>
	<polygon style="fill:#1D1D1F;" points="261.151,15 316.158,15 316.158,33 331.158,33 331.158,0 246.151,0 246.151,33 261.151,33 	
		"/>
	<polygon style="fill:#1D1D1F;" points="316.158,104.522 316.158,122.522 261.151,122.522 261.151,104.522 246.151,104.522 
		246.151,137.522 331.158,137.522 331.158,104.522 	"/>
	<path style="fill:#1D1D1F;" d="M424.901,335.958l-1.038-4.385l-4.359-1.142c-9.313-2.439-14.377-5.31-19.274-8.086
		c-7.454-4.224-14.494-8.214-31.174-8.214c-14.861,0-22.569,4.968-29.37,9.351c-6.033,3.888-10.799,6.959-21.246,6.959
		c-10.445,0-15.211-3.071-21.244-6.959c-6.801-4.383-14.509-9.351-29.37-9.351c-14.862,0-22.571,4.968-29.373,9.351
		c-6.034,3.888-10.8,6.959-21.248,6.959c-9.393,0-14.711-3.724-20.868-8.035c-7.687-5.381-17.247-12.079-33.72-7.763l-3.761,0.984
		l-1.363,3.642c-5.859,15.657-8.83,32.119-8.83,48.93c0,41.297,18.137,80.308,49.76,107.029L200.52,477h176.279l2.097-1.771
		c31.623-26.723,49.76-65.733,49.76-107.029C428.654,357.321,427.392,346.474,424.901,335.958z M371.265,462H206.052
		c-26.974-23.8-42.39-57.831-42.39-93.801c0-13.626,2.185-26.992,6.499-39.792c7.257-0.925,11.354,1.934,17.571,6.287
		c6.839,4.788,15.351,10.747,29.472,10.747c14.862,0,22.571-4.968,29.373-9.351c6.034-3.888,10.8-6.959,21.248-6.959
		c10.446,0,15.212,3.071,21.245,6.959c6.801,4.383,14.509,9.351,29.369,9.351c14.861,0,22.57-4.968,29.371-9.351
		c6.033-3.888,10.799-6.959,21.245-6.959c12.725,0,17.122,2.492,23.777,6.264c4.464,2.53,9.865,5.591,18.398,8.264
		c1.608,8.048,2.423,16.282,2.423,24.54C413.654,404.168,398.238,438.199,371.265,462z"/>
	<path style="fill:#1D1D1F;" d="M431.81,267.529c-19.357-27.473-45.78-48.56-76.651-61.235V180h6.383v-15h-6.383V92.022h15.75V45.5
		H206.401v46.522h15.75V165h-6.383v15h6.383v26.3c-2.529,1.041-5.04,2.146-7.527,3.31c-3.567-16.842-12.243-32.221-25.047-44.111
		c-15.584-14.473-35.886-22.443-57.167-22.443c-46.354,0-84.066,37.712-84.066,84.066c0,43.287,32.89,79.039,74.991,83.58
		c-6.424,18.435-9.674,37.728-9.674,57.498c0,56.336,27.39,109.569,73.269,142.4l1.957,1.4H388.43l1.957-1.4
		c45.878-32.831,73.268-86.064,73.268-142.4C463.654,331.907,452.643,297.096,431.81,267.529z M221.401,77.022V60.5h134.507v16.522
		h-0.75v-0.001H222.151v0.001H221.401z M237.151,92.022h103.007V165H237.151V92.022z M383.585,497H193.731
		c-40.792-30.12-65.07-78.086-65.07-128.801c0-21.36,4.146-42.105,12.322-61.659l4.447-10.637l-11.526,0.245l-0.71,0.021
		c-0.261,0.009-0.521,0.019-0.784,0.019c-38.083,0-69.066-30.983-69.066-69.066s30.983-69.066,69.066-69.066
		c35.771,0,66.002,27.908,68.824,63.536l0.913,11.52l10.149-5.525c6.068-3.302,12.384-6.209,18.785-8.681h50.073v-15h-44.003V180
		h103.007v36.593l4.857,1.828c61.989,23.338,103.639,83.528,103.639,149.778C448.654,418.914,424.377,466.88,383.585,497z"/>
	<path style="fill:#1D1D1F;" d="M182.954,227.121c0-27.87-22.674-50.545-50.544-50.545s-50.544,22.675-50.544,50.545
		s22.674,50.545,50.544,50.545S182.954,254.991,182.954,227.121z M132.41,262.666c-19.599,0-35.544-15.945-35.544-35.545
		s15.945-35.545,35.544-35.545s35.544,15.945,35.544,35.545S152.009,262.666,132.41,262.666z"/>
</g>
<g>
</g>
<g>
</g>
<g>
</g>
<g>
</g>
<g>
</g>
<g>
</g>
<g>
</g>
<g>
</g>
<g>
</g>
<g>
</g>
<g>
</g>
<g>
</g>
<g>
</g>
<g>
</g>
<g>
</g>
</svg>
